<svg width="94" height="94" viewBox="0 0 94 94" fill="none" xmlns="http://www.w3.org/2000/svg">
<path d="M47.14 90.28C70.9654 90.28 90.28 70.9654 90.28 47.14C90.28 23.3144 70.9654 4 47.14 4C23.3144 4 4 23.3144 4 47.14C4 70.9654 23.3144 90.28 47.14 90.28Z" stroke="white" stroke-width="6.471" stroke-linecap="round" stroke-linejoin="round"/>
<path d="M57.2059 77.338V69.301C57.3137 67.9658 57.1286 66.6233 56.6623 65.3632C56.1964 64.1031 55.46 62.9538 54.5027 61.9922C63.5332 61.0121 73.024 57.6795 73.024 42.3898C73.0231 38.4799 71.4787 34.72 68.71 31.8883C70.021 28.4677 69.9283 24.6868 68.4512 21.331C68.4512 21.331 65.0573 20.3509 57.2059 25.4756C50.6141 23.736 43.6659 23.736 37.074 25.4756C29.2225 20.3509 25.8288 21.331 25.8288 21.331C24.3516 24.6868 24.2589 28.4677 25.57 31.8883C22.7806 34.741 21.2345 38.5349 21.256 42.4735C21.256 57.6515 30.7468 60.984 39.7773 62.0759C38.8312 63.028 38.1014 64.1635 37.6357 65.4085C37.1699 66.6531 36.9785 67.9792 37.074 69.301V77.338" stroke="white" stroke-width="6.471" stroke-linecap="round" stroke-linejoin="round"/>
<path d="M37.074 71.7375C28.446 74.4627 21.256 71.7375 16.942 63.3364" stroke="white" stroke-width="6.471" stroke-linecap="round" stroke-linejoin="round"/>
</svg>
